<svg viewBox="0 0 24 24" xmlns="http://www.w3.org/2000/svg"><path d="m11 2c-1.0930628 0-2 .9069372-2 2v5h-8v1 1c.6466454 0 1.1755518.466658 1.2558594 1.107422l.3144531 2.511719c.1828908 1.464589 1.0046317 2.705606 2.1523437 3.492187l-.7226562 2.888672h2.0605469l.5234375-2.09375c.3078306.059735.6238524.09375.9472656.09375h8.9375c.323413 0 .639436-.03405.947266-.09375l.523437 2.09375h2.060547l-.722656-2.888672c1.147548-.786185 1.969435-2.026235 2.152344-3.490234l.314453-2.511719c.080407-.642124.609214-1.109375 1.255859-1.109375v-1-1h-12v-5h3v1h-1v2h4v-2h-1v-1c0-1.0930628-.906937-2-2-2z"/></svg>