<svg viewBox="0 0 50 50" xmlns="http://www.w3.org/2000/svg"><path d="m5 10c-1.652344 0-3 1.347656-3 3v13.8125c1.296875-1.125 2.9375-2.035156 5-2.75v-4.0625c0-2.660156 4.542969-3 8.5-3s8.5.339844 8.5 3v2c.335938-.003906.65625 0 1 0s.664063-.003906 1 0v-2c0-2.660156 4.542969-3 8.5-3s8.5.339844 8.5 3v4.03125c2.058594.710938 3.691406 1.640625 5 2.78125v-13.8125c0-1.652344-1.347656-3-3-3zm20 14c-19.09375 0-25.015625 3.53125-25 13h50c.015625-9.53125-5.90625-13-25-13zm-25 15v11h7v-4c0-1.4375.5625-2 2-2h32c1.4375 0 2 .5625 2 2v4h7v-11z"/></svg>